<svg xmlns="http://www.w3.org/2000/svg" width="16" height="16" viewBox="0 0 16 16">
  <circle cx="8" cy="8" r="7" fill="#25D366"/>
  <path d="M8 3C5.2 3 3 5.2 3 8c0 .9.2 1.7.6 2.5L3 13l2.6-.6c.7.4 1.5.6 2.4.6 2.8 0 5-2.2 5-5s-2.2-5-5-5zm2.7 6.9c-.1.3-.6.6-1 .7-.3 0-.6.1-1.8-.4-.8-.3-1.5-.9-2-1.5-.4-.5-.7-1.1-.7-1.7 0-.6.2-1.1.6-1.5.1-.1.3-.2.5-.2h.3c.1 0 .2 0 .3.2.1.2.4.9.4 1 0 .1 0 .2-.1.3l-.2.3c-.1.1-.2.2-.1.4.2.3.5.7.9 1 .4.3.7.4 1 .5.1.1.2 0 .3-.1l.5-.6c.1-.1.2-.1.3-.1.1 0 .2.1.3.1l1 .5c.2.1.3.1.3.2.1.2.1.6 0 .9z" fill="white"/>
</svg>
