<svg xmlns="http://www.w3.org/2000/svg" width="48" height="48" viewBox="0 0 48 48">
  <circle cx="24" cy="24" r="22" fill="#25D366"/>
  <path d="M24 10c-7.7 0-14 6.3-14 14 0 2.5.7 4.9 1.9 7l-2.4 8.8 9-2.4c2.1 1.2 4.4 1.8 6.9 1.8 7.7 0 14-6.3 14-14s-6.3-14-14-14zm8.2 19.7c-.4.9-1.9 1.7-2.6 1.8-.7.1-1.4.2-4.5-.9-2.5-1-4.6-3.5-5.8-4.6-1.2-1.5-2.2-3.4-2.2-5.2 0-1.8.7-3.3 1.8-4.4.4-.4.8-.5 1.1-.5.3 0 .6 0 .9 0 .3 0 .6 0 .9.7.4.8 1.2 2.9 1.3 3.1.1.2.2.5 0 .8-.1.3-.2.5-.4.7l-.5.6c-.2.2-.4.4-.2.8.5 1 1.4 2.1 2.5 2.9 1.1.8 2.1 1.2 2.6 1.4.3.1.6.1.8-.1.2-.2.9-1.1 1.2-1.4.3-.4.5-.3.9-.2.3.1 2.1 1 2.5 1.2.4.2.6.3.7.4.2.4.2 1.3-.2 2.2z" fill="white"/>
</svg>
