<svg xmlns="http://www.w3.org/2000/svg" width="128" height="128" viewBox="0 0 128 128">
  <circle cx="64" cy="64" r="60" fill="#25D366"/>
  <path d="M64 26c-21 0-38 17-38 38 0 6.8 1.8 13.3 5.2 19l-6.4 23.8 24.4-6.4c5.7 3.1 12.1 4.8 18.8 4.8 21 0 38-17 38-38S85 26 64 26zm22.2 53.3c-1 2.5-5.1 4.6-7 4.9-1.9.3-3.8.5-12.2-2.5-6.8-2.6-12.5-9.5-15.8-12.5-3.2-4.1-5.9-9.3-5.9-14.1 0-4.9 1.9-9 4.9-12 1-1 2.2-1.4 3-1.4.8 0 1.6 0 2.4.1.8 0 1.7-.1 2.5 1.9 1 2.2 3.3 7.9 3.5 8.5.3.6.5 1.3.1 2.1-.3.8-.5 1.3-1 2l-1.4 1.6c-.5.5-1 1-.4 2.1 1.4 2.7 3.8 5.7 6.8 7.8 3 2.2 5.6 3.2 7 3.8.8.3 1.6.2 2.2-.3.6-.5 2.4-2.8 3.1-3.8.7-1 1.4-.8 2.4-.5.9.3 5.7 2.7 6.8 3.2 1 .5 1.7.7 1.9 1.1.4 1.2.4 3.5-.5 6z" fill="white"/>
</svg>
